<?xml version="1.0" encoding="UTF-8"?><svg id="Camada_1" xmlns="http://www.w3.org/2000/svg" viewBox="0 0 136.06 121.54"><defs><style>.cls-1{fill:#fff;stroke-width:0px;}.cls-2{fill:none;stroke:#fff;stroke-linecap:round;stroke-miterlimit:10;}</style></defs><path class="cls-1" d="m101.54,95.41v4.43c0,.34.09.62.27.83.18.21.45.32.81.32s.64-.11.82-.32.27-.49.27-.83v-4.43h1.64v4.55c0,.43-.07.8-.21,1.11-.14.32-.33.58-.58.78-.25.2-.54.36-.87.46-.33.1-.69.15-1.07.15s-.74-.05-1.06-.15-.62-.26-.87-.46c-.25-.2-.44-.46-.58-.78-.14-.32-.21-.69-.21-1.11v-4.55h1.63Z"/><path class="cls-1" d="m108.43,95.41v6.77h-1.69v-6.77h1.69Zm4.22,0l-2.75,3.17,2.89,3.6h-1.98l-2.85-3.55,2.78-3.22h1.92Z"/><path class="cls-2" d="m47.22,13.54c15.45-.47,30.52,6.56,40.01,19.23"/><path class="cls-2" d="m1.69,51.5c3.05-14.08,12.37-26.65,26.4-33.31,2.45-1.16,4.94-2.1,7.46-2.82"/><path class="cls-2" d="m62.13,107.88c-22.28,6.49-46.6-3.95-56.88-25.58-2.47-5.2-3.93-10.63-4.45-16.05"/><path class="cls-2" d="m95.38,49.81c5.27,20.67-3.8,42.76-22.69,53.58"/><path class="cls-2" d="m29.11,48.95c2.57-9.42,8.02-18.14,16.19-24.74,20.68-16.69,50.98-13.47,67.67,7.21,14.64,18.13,13.96,43.65-.37,60.92"/><path class="cls-2" d="m97.94,104.25c-19.93,10.52-45.16,5.83-59.86-12.36-.77-.96-1.51-1.94-2.19-2.94"/><path class="cls-1" d="m30.45,47.11v30.8h-5.19v-30.8h5.19Zm-2.11,0h6.42c2.23,0,4.17.4,5.83,1.19,1.66.79,2.94,1.9,3.85,3.32.91,1.42,1.36,3.1,1.36,5.04s-.46,3.62-1.36,5.06c-.91,1.44-2.19,2.55-3.85,3.34-1.66.79-3.6,1.19-5.83,1.19h-6.42v-4.27h6.2c1.17,0,2.21-.2,3.1-.62.89-.41,1.59-1,2.09-1.78.5-.78.75-1.71.75-2.79s-.25-2.05-.75-2.82c-.5-.76-1.2-1.35-2.09-1.76-.89-.41-1.93-.62-3.1-.62h-6.2v-4.49Zm8.89,16.1l10.43,14.7h-6.25l-9.81-14.7h5.63Z"/><path class="cls-1" d="m54.01,77.91h5.85l3.51-7.92h11.35l3.53,7.92h5.85l-15.05-32.51-15.05,32.51Zm19.22-12.32h-8.35l4.18-9.77,4.17,9.77Z"/><rect class="cls-1" x="93.52" y="47.11" width="5.24" height="30.8"/><path class="cls-2" d="m109.24,110.56c-10.1,6.9-22.39,10.8-35.55,10.46-33.29-.87-59.58-28.56-58.71-61.85C15.74,29.98,37.12,6.17,64.82,1.34"/><path class="cls-2" d="m88.47,1.89c27.57,6.16,47.83,31.12,47.07,60.42-.04,1.54-.14,3.07-.29,4.59"/><circle class="cls-1" cx="134.87" cy="70.76" r=".81"/><circle class="cls-1" cx="89.67" cy="37.02" r=".81"/><circle class="cls-1" cx="33.61" cy="84.92" r=".81"/><circle class="cls-1" cx="76.38" cy=".81" r=".81"/><circle class="cls-1" cx=".81" cy="58.65" r=".81"/></svg>